<?xml version="1.0" standalone="no"?>
<!DOCTYPE svg PUBLIC "-//W3C//DTD SVG 20010904//EN"
 "http://www.w3.org/TR/2001/REC-SVG-20010904/DTD/svg10.dtd">
<svg version="1.0" xmlns="http://www.w3.org/2000/svg"
 width="599.000000pt" height="599.000000pt" viewBox="0 0 599.000000 599.000000"
 preserveAspectRatio="xMidYMid meet">
<metadata>
Created by potrace 1.11, written by Peter Selinger 2001-2013
</metadata>
<g transform="translate(0.000000,599.000000) scale(0.100000,-0.100000)"
fill="#000000" stroke="none">
<path d="M699 5955 c0 -16 -1 -1361 -2 -2988 -2 -2951 -2 -2957 18 -2958 110
-4 837 0 842 5 3 3 8 696 9 1539 1 842 3 1979 4 2525 1 546 -1 996 -5 1000
-10 10 -304 318 -355 372 -25 26 -118 123 -206 216 -89 93 -193 203 -233 244
-69 73 -71 74 -72 45z"/>
<path d="M4419 5043 c0 -16 -2 -35 -4 -43 -1 -8 -5 -46 -9 -85 -4 -38 -9 -81
-11 -95 -4 -27 -10 -78 -20 -175 -4 -33 -8 -70 -10 -83 -2 -13 -7 -53 -10 -90
-3 -37 -8 -78 -10 -92 -3 -14 -7 -52 -10 -85 -4 -33 -9 -73 -11 -90 -3 -16 -7
-52 -9 -80 -4 -48 -13 -123 -20 -175 -2 -14 -6 -50 -10 -80 -10 -95 -14 -123
-21 -180 -7 -60 -10 -84 -18 -175 -3 -33 -8 -69 -10 -80 -2 -11 -7 -51 -11
-90 -3 -38 -8 -83 -11 -100 -4 -33 -31 -263 -39 -335 -3 -25 -7 -65 -10 -90
-3 -25 -7 -67 -10 -95 -8 -65 -14 -122 -20 -165 -3 -19 -7 -60 -10 -90 -5 -51
-20 -177 -30 -260 -2 -19 -7 -60 -10 -90 -3 -30 -8 -72 -10 -92 -3 -21 -7 -55
-10 -75 -2 -21 -7 -63 -10 -93 -6 -55 -10 -91 -19 -165 -3 -22 -8 -65 -11 -95
-3 -30 -8 -71 -11 -90 -2 -19 -6 -60 -9 -90 -2 -30 -7 -66 -9 -80 -3 -14 -8
-54 -12 -90 -3 -36 -8 -79 -10 -97 l-4 -32 387 2 387 2 7 34 c4 19 10 59 13
90 3 31 8 65 10 76 2 11 7 43 10 70 6 41 32 229 51 360 2 17 7 53 10 80 4 28
8 57 10 65 2 8 7 39 10 69 4 30 9 63 11 75 2 12 7 46 10 76 3 30 7 57 9 60 2
3 6 34 10 70 4 36 9 73 11 84 2 10 6 44 9 75 4 31 8 63 10 71 2 8 7 35 10 60
3 25 8 56 10 70 2 14 7 52 11 85 3 33 8 62 9 65 2 3 7 33 10 65 4 33 9 69 11
80 2 11 11 72 19 135 8 63 17 126 19 140 3 14 7 48 11 75 8 67 14 109 25 175
5 30 12 79 15 109 4 30 8 62 10 71 2 9 6 41 10 71 3 30 8 65 10 79 3 14 7 39
9 55 2 17 7 48 10 70 4 22 8 58 11 80 2 22 7 51 9 65 3 14 8 48 11 75 3 28 7
61 10 75 5 31 12 79 20 145 3 28 10 75 15 105 5 30 12 78 15 105 4 28 8 61 10
75 2 14 7 48 10 75 3 28 8 61 10 75 7 39 13 81 20 130 7 57 15 117 21 153 l4
27 -440 0 -440 0 -1 -27z"/>
<path d="M3045 3325 c-49 -51 -250 -257 -446 -457 -196 -200 -449 -457 -561
-573 l-205 -209 37 -81 c21 -44 72 -152 115 -240 43 -88 94 -196 115 -240 21
-44 70 -147 110 -230 40 -82 96 -199 125 -260 29 -60 78 -164 110 -230 31 -66
74 -156 95 -200 21 -44 80 -168 132 -275 52 -107 107 -223 123 -257 24 -53 33
-63 54 -64 34 -1 659 -1 688 0 24 1 29 -12 -124 311 -25 52 -71 151 -103 220
-32 69 -85 183 -119 254 -33 70 -61 129 -61 131 0 2 -31 69 -70 150 -38 81
-70 148 -70 150 0 2 -31 69 -70 150 -38 81 -70 148 -70 150 0 1 -25 55 -56
119 -45 96 -53 119 -42 130 7 7 40 44 73 82 66 76 233 263 249 280 6 6 22 24
36 40 14 16 152 172 308 347 l283 318 -45 47 c-83 87 -190 198 -350 366 -87
91 -162 166 -165 166 -3 -1 -46 -43 -96 -95z"/>
<path d="M3929 748 c-1 -5 -2 -11 -3 -15 -2 -5 -6 -44 -10 -88 -5 -44 -10 -89
-12 -100 -2 -11 -6 -49 -9 -85 -3 -36 -8 -76 -10 -90 -2 -14 -7 -52 -10 -85
-4 -33 -8 -71 -10 -85 -2 -14 -7 -52 -10 -85 -4 -33 -8 -71 -11 -85 l-3 -25
369 1 c204 0 372 3 374 5 5 5 12 40 22 114 3 28 7 57 9 65 1 8 6 40 10 70 4
30 9 62 10 70 1 8 6 44 11 80 4 36 8 67 9 70 1 3 5 32 9 65 5 33 10 69 12 80
2 11 7 45 10 75 l6 55 -381 0 c-210 0 -382 -3 -382 -7z"/>
</g>
</svg>
